{"title":"Angry Birds 2016 720p BluRay HEVC 2CH x265 [720P][HEVC]","uid":15422596,"size":728996729,"categoryP":"video","categoryS":"hd___movies","magnet":"?xt=urn:btih:2898e46234b3f919bc9c3aa19f42f299762d7953&amp;dn=Angry+Birds+2016+720p+BluRay+HEVC+2CH+x265+%5B720P%5D%5BHEVC%5D&amp;tr=udp%3A%2F%2Ftracker.leechers-paradise.org%3A6969&amp;tr=udp%3A%2F%2Fzer0day.ch%3A1337&amp;tr=udp%3A%2F%2Fopen.demonii.com%3A1337&amp;tr=udp%3A%2F%2Ftracker.coppersurfer.tk%3A6969&amp;tr=udp%3A%2F%2Fexodus.desync.com%3A6969","seeders":1,"leechers":0,"uploader":"nayhtut","files":2,"time":1469654235,"description":"[Screenshots]\r\n\r\n \nhttps://s32.postimg.org/baz5k01ud/Angry_Birds_2016_720p_Blu_Ray_HEVC_2_CH_x265_008.jpg \nhttps://s32.postimg.org/uu3qtd0lx/Angry_Birds_2016_720p_Blu_Ray_HEVC_2_CH_x265_006.jpg \nhttps://s32.postimg.org/97ts9g8d1/Angry_Birds_2016_720p_Blu_Ray_HEVC_2_CH_x265_005.jpg \nhttps://s32.postimg.org/gp2zonxw5/Angry_Birds_2016_720p_Blu_Ray_HEVC_2_CH_x265_003.jpg\r\n\r\n\r\nSource: Angry Birds 2016 720p BluRay x264-GECKOS (3GB)\r\n\r\n\r\n__--__--__--__--__--__--__--__--__--__--__--__--__--\r\n \r\n\r\nComplete name                            : Angry.Birds.2016.720p.BluRay.HEVC.2CH.x265.mkv\r\nFormat                                   : Matroska\r\nFormat version                           : Version 4 / Version 2\r\nFile size                                : 695 MiB\r\nDuration                                 : 1h 37mn\r\nOverall bit rate                         : 1 000 Kbps\r\nWriting application                      : Lavf57.25.100\r\nWriting library                          : Lavf57.25.100\r\n\r\nVideo\r\n\r\nID                                       : 1\r\nFormat                                   : V_MPEGH/ISO/HEVC\r\nCodec ID                                 : V_MPEGH/ISO/HEVC\r\nDuration                                 : 1h 37mn\r\nBit rate                                 : 788 Kbps\r\nWidth                                    : 1 280 pixels\r\nHeight                                   : 688 pixels\r\nDisplay aspect ratio                     : 1.85:1\r\nFrame rate                               : 25.000 fps\r\nBits/(Pixel*Frame)                       : 0.036\r\nStream size                              : 548 MiB (79%)\r\nWriting library                          : Lavc57.48.101 libx265\r\nLanguage                                 : English\r\nDefault                                  : Yes\r\nForced                                   : No\r\nDURATION                                 : 01:37:13.811000000\r\nNUMBER_OF_FRAMES                         : 139870\r\nNUMBER_OF_BYTES                          : 2417177207\r\n_STATISTICS_WRITING_APP                  : mkvmerge v8.3.0 ('Over the Horizon') 64bit\r\n_STATISTICS_WRITING_DATE_UTC             : 2016-07-27 16:09:15\r\n_STATISTICS_TAGS                         : BPS DURATION NUMBER_OF_FRAMES NUMBER_OF_BYTES\r\n\r\nAudio\r\n\r\nID                                       : 2\r\nFormat                                   : AC-3\r\nFormat/Info                              : Audio Coding 3\r\nMode extension                           : CM (complete main)\r\nFormat settings, Endianness              : Big\r\nCodec ID                                 : A_AC3\r\nDuration                                 : 1h 37mn\r\nBit rate mode                            : Constant\r\nBit rate                                 : 192 Kbps\r\nChannel(s)                               : 2 channels\r\nChannel positions                        : Front: L R\r\nSampling rate                            : 48.0 KHz\r\nBit depth                                : 16 bits\r\nCompression mode                         : Lossy\r\nStream size                              : 134 MiB (19%)\r\nWriting library                          : Lavc57.24.102 ac3\r\nLanguage                                 : English\r\nDefault                                  : Yes\r\nForced                                   : No\r\nDURATION                                 : 01:37:13.919000000\r\nNUMBER_OF_FRAMES                         : 546922\r\nNUMBER_OF_BYTES                          : 1100407064\r\n_STATISTICS_WRITING_APP                  : mkvmerge v8.3.0 ('Over the Horizon') 64bit\r\n_STATISTICS_WRITING_DATE_UTC             : 2016-07-27 16:09:15\r\n_STATISTICS_TAGS                         : BPS DURATION NUMBER_OF_FRAMES NUMBER_OF_BYTES\r\n\r\nMenu\r\n\r\n00:00:00.000                             : :00:00:00.000\r\n00:07:05.091                             : :00:07:05.091\r\n00:13:38.109                             : :00:13:38.109\r\n00:20:22.638                             : :00:20:22.638\r\n00:25:38.620                             : :00:25:38.620\r\n00:32:57.392                             : :00:32:57.392\r\n00:38:34.812                             : :00:38:34.812\r\n00:41:36.327                             : :00:41:36.327\r\n00:47:12.955                             : :00:47:12.955\r\n00:52:04.288                             : :00:52:04.288\r\n00:56:07.698                             : :00:56:07.698\r\n00:59:08.712                             : :00:59:08.712\r\n01:03:43.319                             : :01:03:43.319\r\n01:11:45.801                             : :01:11:45.801\r\n01:18:55.522                             : :01:18:55.522\r\n01:23:54.821                             : :01:23:54.821\r\n\r\n__--__--__--__--__--__--__--__--__--__--__--__--__--\r\n\r\n\r\nIMDb: http://www.imdb.com/title/tt1985949\r\n\r\n\r\n__--__--__--__--__--__--__--__--__--__--__--__--__--\r\n\r\n\r\nAfter adding torrent with maget link,\r\n\r\nplease add this  following trackers list to the torrent for better seeds.\r\n\r\n\r\nudp://tracker.coppersurfer.tk:6969/announce\r\n\r\nudp://tracker.opentrackr.org:1337/announce\r\n \nhttp://tracker.baravik.org:6970/announce\r\n \nhttp://tracker2.wasabii.com.tw:6969/announce\r\n\r\nudp://9.rarbg.me:2710/announce\r\n\r\n\r\n__--__--__--__--__--__--__--__--__--__--__--__--__--\r\n\r\n\r\nEnjoy!","torrent":{"xt":"urn:btih:2898e46234b3f919bc9c3aa19f42f299762d7953","amp;dn":"Angry+Birds+2016+720p+BluRay+HEVC+2CH+x265+%5B720P%5D%5BHEVC%5D","amp;tr":["udp%3A%2F%2Ftracker.leechers-paradise.org%3A6969","udp%3A%2F%2Fzer0day.ch%3A1337","udp%3A%2F%2Fopen.demonii.com%3A1337","udp%3A%2F%2Ftracker.coppersurfer.tk%3A6969","udp%3A%2F%2Fexodus.desync.com%3A6969"],"infoHash":"2898e46234b3f919bc9c3aa19f42f299762d7953","infoHashBuffer":{"type":"Buffer","data":[40,152,228,98,52,179,249,25,188,156,58,161,159,66,242,153,118,45,121,83]},"announce":[],"urlList":[]}}